<svg width="136" height="86" viewBox="0 0 136 86" fill="none" xmlns="http://www.w3.org/2000/svg">
<rect x="0.5" y="4.5" width="135" height="81" rx="14.5" fill="white" stroke="#DBBBA7"/>
<path d="M22.76 43V28.99H18.14V25.66H19.97C20.85 25.66 21.56 25.54 22.1 25.3C22.66 25.04 23.06 24.63 23.3 24.07C23.56 23.49 23.69 22.7 23.69 21.7H27.32V43H22.76ZM31.9166 47.74L33.5366 43H31.5866V38.41H36.4766V42.52L34.3766 47.74H31.9166ZM47.5864 43.48C45.8464 43.48 44.3764 43.22 43.1764 42.7C41.9764 42.18 41.0464 41.44 40.3864 40.48C39.7264 39.52 39.3464 38.4 39.2464 37.12L43.8664 36.91C44.0464 37.83 44.4464 38.52 45.0664 38.98C45.7064 39.42 46.5464 39.64 47.5864 39.64C48.7464 39.64 49.6564 39.31 50.3164 38.65C50.9964 37.99 51.3364 37.08 51.3364 35.92C51.3364 35.16 51.1764 34.5 50.8564 33.94C50.5564 33.38 50.1264 32.94 49.5664 32.62C49.0064 32.3 48.3364 32.14 47.5564 32.14C46.6964 32.14 45.9564 32.33 45.3364 32.71C44.7164 33.09 44.2864 33.57 44.0464 34.15H39.4864L40.9564 21.7H54.5464V25.54H44.8264L44.0464 31.75L43.5364 31.3C43.8764 30.78 44.2964 30.34 44.7964 29.98C45.3164 29.6 45.9164 29.31 46.5964 29.11C47.2764 28.89 48.0264 28.78 48.8464 28.78C50.3264 28.78 51.5964 29.09 52.6564 29.71C53.7364 30.33 54.5664 31.18 55.1464 32.26C55.7264 33.34 56.0164 34.56 56.0164 35.92C56.0164 37.46 55.6664 38.8 54.9664 39.94C54.2664 41.08 53.2864 41.96 52.0264 42.58C50.7664 43.18 49.2864 43.48 47.5864 43.48ZM68.1934 43.48C66.3134 43.48 64.6934 43.04 63.3334 42.16C61.9734 41.26 60.9234 39.98 60.1834 38.32C59.4634 36.66 59.1034 34.68 59.1034 32.38C59.1034 30.08 59.4734 28.1 60.2134 26.44C60.9534 24.76 61.9934 23.47 63.3334 22.57C64.6934 21.67 66.3134 21.22 68.1934 21.22C70.0534 21.22 71.6534 21.67 72.9934 22.57C74.3534 23.47 75.4034 24.76 76.1434 26.44C76.8834 28.1 77.2534 30.08 77.2534 32.38C77.2534 34.66 76.8834 36.63 76.1434 38.29C75.4234 39.95 74.3834 41.23 73.0234 42.13C71.6634 43.03 70.0534 43.48 68.1934 43.48ZM68.1934 39.64C69.5934 39.64 70.6634 39.03 71.4034 37.81C72.1634 36.59 72.5434 34.78 72.5434 32.38C72.5434 30.76 72.3734 29.41 72.0334 28.33C71.7134 27.25 71.2234 26.44 70.5634 25.9C69.9234 25.34 69.1334 25.06 68.1934 25.06C67.2334 25.06 66.4234 25.34 65.7634 25.9C65.1234 26.44 64.6334 27.25 64.2934 28.33C63.9734 29.41 63.8134 30.76 63.8134 32.38C63.8134 34.78 64.1834 36.59 64.9234 37.81C65.6834 39.03 66.7734 39.64 68.1934 39.64ZM89.1699 43.48C87.2899 43.48 85.6699 43.04 84.3099 42.16C82.9499 41.26 81.8999 39.98 81.1599 38.32C80.4399 36.66 80.0799 34.68 80.0799 32.38C80.0799 30.08 80.4499 28.1 81.1899 26.44C81.9299 24.76 82.9699 23.47 84.3099 22.57C85.6699 21.67 87.2899 21.22 89.1699 21.22C91.0299 21.22 92.6299 21.67 93.9699 22.57C95.3299 23.47 96.3799 24.76 97.1199 26.44C97.8599 28.1 98.2299 30.08 98.2299 32.38C98.2299 34.66 97.8599 36.63 97.1199 38.29C96.3999 39.95 95.3599 41.23 93.9999 42.13C92.6399 43.03 91.0299 43.48 89.1699 43.48ZM89.1699 39.64C90.5699 39.64 91.6399 39.03 92.3799 37.81C93.1399 36.59 93.5199 34.78 93.5199 32.38C93.5199 30.76 93.3499 29.41 93.0099 28.33C92.6899 27.25 92.1999 26.44 91.5399 25.9C90.8999 25.34 90.1099 25.06 89.1699 25.06C88.2099 25.06 87.3999 25.34 86.7399 25.9C86.0999 26.44 85.6099 27.25 85.2699 28.33C84.9499 29.41 84.7899 30.76 84.7899 32.38C84.7899 34.78 85.1599 36.59 85.8999 37.81C86.6599 39.03 87.7499 39.64 89.1699 39.64ZM106.366 41.74V27.04H110.026V41.74H106.366ZM100.846 36.22V32.59H115.546V36.22H100.846Z" fill="#3B4883"/>
<path d="M18.462 68V55.93H20.298V68H18.462ZM25.8934 68C25.0321 68 24.3974 67.8017 23.9894 67.405C23.5814 67.0083 23.3774 66.3907 23.3774 65.552V56.831H25.1794V65.416C25.1794 65.8353 25.2701 66.1243 25.4514 66.283C25.6327 66.4417 25.9104 66.521 26.2844 66.521H27.5764V68H25.8934ZM22.0004 60.435V58.956H27.5764V60.435H22.0004ZM32.872 68.204C31.988 68.204 31.223 68.0113 30.577 67.626C29.9424 67.2407 29.4494 66.691 29.098 65.977C28.758 65.263 28.588 64.43 28.588 63.478C28.588 62.526 28.758 61.6987 29.098 60.996C29.4494 60.282 29.9424 59.7323 30.577 59.347C31.2117 58.9503 31.9597 58.752 32.821 58.752C33.637 58.752 34.3567 58.9447 34.98 59.33C35.6034 59.704 36.085 60.248 36.425 60.962C36.7764 61.676 36.952 62.5373 36.952 63.546V64.005H30.458C30.5034 64.889 30.7357 65.552 31.155 65.994C31.5857 66.436 32.1637 66.657 32.889 66.657C33.4217 66.657 33.8637 66.5323 34.215 66.283C34.5664 66.0337 34.81 65.6993 34.946 65.28L36.816 65.399C36.578 66.2377 36.1077 66.9177 35.405 67.439C34.7137 67.949 33.8694 68.204 32.872 68.204ZM30.458 62.645H35.048C34.9914 61.8403 34.759 61.2453 34.351 60.86C33.9544 60.4747 33.4444 60.282 32.821 60.282C32.175 60.282 31.6424 60.486 31.223 60.894C30.815 61.2907 30.56 61.8743 30.458 62.645ZM38.7779 68V58.956H40.4269L40.4779 61.2L40.2739 61.132C40.3759 60.6333 40.5516 60.2083 40.8009 59.857C41.0616 59.5057 41.3789 59.2337 41.7529 59.041C42.1269 58.8483 42.5349 58.752 42.9769 58.752C43.7476 58.752 44.3766 58.973 44.8639 59.415C45.3513 59.8457 45.6573 60.4407 45.7819 61.2H45.4929C45.5949 60.6673 45.7649 60.2253 46.0029 59.874C46.2523 59.5113 46.5696 59.2337 46.9549 59.041C47.3403 58.8483 47.7766 58.752 48.2639 58.752C48.8986 58.752 49.4369 58.888 49.8789 59.16C50.3323 59.4207 50.6723 59.806 50.8989 60.316C51.1369 60.826 51.2559 61.4493 51.2559 62.186V68H49.4539V62.628C49.4539 61.846 49.3123 61.2567 49.0289 60.86C48.7456 60.4633 48.3149 60.265 47.7369 60.265C47.3629 60.265 47.0343 60.3613 46.7509 60.554C46.4676 60.7467 46.2466 61.0243 46.0879 61.387C45.9406 61.7497 45.8669 62.186 45.8669 62.696V68H44.1499V62.696C44.1499 61.9253 44.0196 61.3303 43.7589 60.911C43.5096 60.4803 43.0789 60.265 42.4669 60.265C42.0816 60.265 41.7473 60.3613 41.4639 60.554C41.1919 60.7467 40.9766 61.03 40.8179 61.404C40.6593 61.7667 40.5799 62.1973 40.5799 62.696V68H38.7779ZM57.1047 68.204C56.2547 68.204 55.5351 68.0737 54.9457 67.813C54.3677 67.5523 53.9201 67.1953 53.6027 66.742C53.2854 66.2773 53.1041 65.7447 53.0587 65.144L54.9117 65.059C55.0024 65.5577 55.2177 65.9543 55.5577 66.249C55.8977 66.5437 56.4134 66.691 57.1047 66.691C57.6714 66.691 58.1191 66.6003 58.4477 66.419C58.7764 66.2377 58.9407 65.9487 58.9407 65.552C58.9407 65.3367 58.8841 65.1553 58.7707 65.008C58.6687 64.8493 58.4647 64.719 58.1587 64.617C57.8527 64.5037 57.3994 64.396 56.7987 64.294C55.9034 64.124 55.2007 63.9257 54.6907 63.699C54.1807 63.4723 53.8181 63.1833 53.6027 62.832C53.3874 62.4807 53.2797 62.0557 53.2797 61.557C53.2797 60.7297 53.5857 60.0553 54.1977 59.534C54.8211 59.0127 55.7164 58.752 56.8837 58.752C57.6657 58.752 58.3231 58.888 58.8557 59.16C59.3884 59.4207 59.8021 59.7777 60.0967 60.231C60.4027 60.673 60.5954 61.1717 60.6747 61.727L58.8217 61.829C58.7651 61.5117 58.6517 61.2397 58.4817 61.013C58.3231 60.775 58.1077 60.5937 57.8357 60.469C57.5637 60.333 57.2407 60.265 56.8667 60.265C56.2887 60.265 55.8581 60.3783 55.5747 60.605C55.2914 60.8317 55.1497 61.1263 55.1497 61.489C55.1497 61.761 55.2121 61.982 55.3367 62.152C55.4727 62.322 55.6881 62.4637 55.9827 62.577C56.2774 62.679 56.6684 62.7697 57.1557 62.849C58.0964 63.0077 58.8331 63.206 59.3657 63.444C59.8984 63.6707 60.2724 63.954 60.4877 64.294C60.7031 64.634 60.8107 65.0477 60.8107 65.535C60.8107 66.1017 60.6521 66.5833 60.3347 66.98C60.0174 67.3767 59.5811 67.6827 59.0257 67.898C58.4704 68.102 57.8301 68.204 57.1047 68.204Z" fill="#202124" fill-opacity="0.6"/>
</svg>
